<?xml version="1.0" encoding="utf-8"?><svg version="1.1" id="Layer_1" xmlns="http://www.w3.org/2000/svg" xmlns:xlink="http://www.w3.org/1999/xlink" x="0px" y="0px" viewBox="0 0 122.88 114.84" style="enable-background:new 0 0 122.88 114.84" xml:space="preserve"><style type="text/css">.st0{fill-rule:evenodd;clip-rule:evenodd;}</style><g><path class="st0" d="M8.22,23.43C3.7,16.43,1.13,8.06,0,0c7.55,1.07,15.28,3.43,23.33,8l-0.26-5.15 c5.72,0.83,13.19,4.23,21.87,9.41l0.05-4.92c5.77,2.2,11.54,5.72,17.31,10.83l1.92-4.08c5.31,2.79,10.81,7.65,16.51,14.63 l2.02-4.27c4.48,3.62,8.22,8.93,10.88,16.7l3.05-3.05c2.56,3.51,4.55,8.99,5.63,17.63l3.94-2.16c0.88,4.78-0.36,11.68-2.63,19.6 l4.6-0.19c-2.14,7.46-5.12,13.89-9.52,18.62c6.25,6.17,14.57,11.18,24.2,15.48c-0.25,3.48-1.47,6.04-3.61,7.74 c-11.05-7.52-21.52-15.63-31.73-23.99c-8.77-7.5-17.22-15.21-25.38-23.11C47.68,53.7,34.26,39.25,21.6,23.58 c-3.76-4.65-7.41-9.37-10.93-14.16c0.2,3.05,10.24,17.37,17.37,26.3c18.65,23.38,40.43,43.86,62.29,64.14 c-5.71,4.68-11.47,7.41-17.3,8.06v-4.29c-7,2.34-13.79,4-19.57,2.42l2.21-4.01c-6.07-0.21-12.7-2.16-17.84-5.25l3.18-3.46 c-6.79-2.02-12.53-5.27-16.39-10.72l4.15-1.94c-5.82-4.64-11.42-9.47-14.66-16.45l4.22-2c-5.1-5.93-9.12-11.71-10.79-17.15 l5.05-0.21c-5.17-8-8.6-15.38-9.61-21.92L8.22,23.43L8.22,23.43z"/></g></svg>