<svg xmlns="http://www.w3.org/2000/svg" shape-rendering="geometricPrecision" text-rendering="geometricPrecision" image-rendering="optimizeQuality" fill-rule="evenodd" clip-rule="evenodd" viewBox="0 0 254 512.08"><path fill-rule="nonzero" d="M132.03 50.09c.34 6.68 1.4 12.72 3.02 18.02 1.67 5.43 3.92 10.07 6.59 13.79l4.71 6.57c-4.5 1.45-9 2.85-13.47 4.41l-10.53 4.28 1.05-9.79c.19-1.81.25-3.76.16-5.76-.27-6.23-1.9-13.14-5.22-18.63-2.96-4.89-7.35-8.58-13.38-9.23-.98-.11-2.01-.14-3.04-.1-6.09.27-10.62 2.2-13.71 5.17-2.09 2-3.61 4.53-4.57 7.34-1.02 3-1.43 6.32-1.29 9.74.35 7.93 3.66 16.24 9.41 22.25.84.86 1.71 1.67 2.61 2.39.83.66 1.72 1.25 2.64 1.74l8.45 4.45-7.78 5.56-4.07 2.98-14.09 11.25.52-12.93c.33-8.06-4.2-13.69-9.88-16.32-2.21-1.03-4.57-1.63-6.86-1.74-2.23-.12-4.39.18-6.28.94-3.86 1.56-6.75 5.37-6.75 11.77 0 3.1 1.67 6.86 4.14 10.53 3.15 4.66 7.48 8.95 11.57 11.71l5.73 3.87c-5.66 6.02-11.22 12.05-16.8 18.16l-2.52-10.92c-1.44-6.22-5.85-10.7-10.68-12.71-1.96-.82-3.95-1.21-5.75-1.14-1.54.06-2.98.49-4.13 1.32-2.02 1.44-3.39 4.42-3.39 9.23l-.03.22c.09 3.13 1.99 6.66 4.75 9.49 2.69 2.75 6.07 4.67 9.21 4.67l12.52-.13c-6.2 7.94-12.33 15.87-18.44 23.89l-1.59 5.21c-2.17 7.14-3.67 14.14-4.55 20.96-.87 6.79-1.13 13.47-.83 20.01.85 18.35 7.9 37 15.26 56.44 6.36 16.84 12.96 34.28 16.28 53.15 1.6 9.1 2.96 18.75 4.08 28.9 1.12 10.12 2 20.79 2.64 31.98.33 5.7.49 11.74.63 17.73.75 29.7 1.48 58.48 28.36 78.08 14.75 10.77 33.13 13.62 49.77 9.81 6.85-1.57 13.39-4.27 19.23-7.98 5.83-3.71 11.01-8.45 15.13-14.11 9.22-12.63 13.38-30.08 8.47-51.46l-.02-.05c-3.55-16.11-9.13-31.83-14.71-47.53-3.25-9.16-6.5-18.33-9.38-27.6l1.11.01c3.8 0 7.45-.33 10.95-.98 2.62 8.26 5.53 16.45 8.43 24.65 5.73 16.12 11.46 32.25 15.13 48.92 5.71 25.02.63 45.74-10.48 60.96-5.02 6.89-11.29 12.64-18.31 17.1-7.01 4.47-14.81 7.68-22.92 9.54-19.78 4.54-41.67 1.1-59.33-11.78-31.56-23.02-32.37-54.65-33.18-87.31-.15-5.66-.3-11.37-.64-17.35-.62-10.84-1.49-21.31-2.59-31.34-1.09-9.8-2.42-19.2-3.99-28.15-3.14-17.85-9.52-34.73-15.69-51.04-7.68-20.31-15.04-39.79-15.99-60.09-.33-7.17-.04-14.5.92-21.99.61-4.73 1.5-9.54 2.66-14.41-1.36-.05-2.65-.2-3.87-.43-4.64-.89-8.3-3.03-10.97-5.87-6.78-7.18-7.67-14.39-5.2-20.35 1.71-4.14 5.07-7.46 9.18-9.59 2.58-1.33 5.51-2.22 8.51-2.55-1.38-2.95-2.21-6.07-2.29-9.13l-.03-.5c0-9.08 3.37-15.25 8.38-18.83 3.06-2.19 6.68-3.32 10.49-3.48 1.46-.06 2.94.02 4.43.25-.94-2.69-1.47-5.38-1.47-7.99 0-12.02 6.06-19.43 14.18-22.7 3.5-1.41 7.37-1.98 11.26-1.77 2.68.14 5.39.66 7.99 1.52-.73-2.95-1.17-5.94-1.3-8.89-.2-4.86.41-9.65 1.9-14.02 1.55-4.56 4.05-8.7 7.55-12.05 5.08-4.87 12.16-8.04 21.37-8.44 1.69-.07 3.29-.02 4.8.14 5.51.59 10.15 2.59 14 5.51.09-10.32 3.19-20.31 8.29-28.37 4.17-6.6 9.71-12 16.07-15.35 6.63-3.5 14.12-4.8 21.9-3.04 7.07 1.59 14.26 5.73 21.06 13.04 8.87 9.55 14 22.56 14.83 35.67.67 10.78-1.55 21.72-6.97 30.99l1.07.63c12.53 7.73 19.05 20.67 21 35.39 1.86 14.01-.49 29.7-5.73 43.8-2.26 6.08-5.08 11.89-8.34 17.18-4.23 6.87-8.77 15.18-13.14 24.37-3.9 8.23-7.67 17.15-10.94 26.34-1.92 5.41-3.67 10.88-5.18 16.33-1.64-.14-3.31-.21-5.01-.21-2.48 0-4.88.14-7.22.41 1.79-6.92 3.93-13.78 6.3-20.45 3.4-9.56 7.33-18.86 11.4-27.44 4.52-9.51 9.28-18.22 13.78-25.53 2.84-4.61 5.32-9.73 7.32-15.11 4.61-12.39 6.69-26.08 5.09-38.16-1.51-11.38-6.33-21.26-15.51-26.91-1.72-1.06-3.64-2-5.72-2.78l-7.64-2.84 5.76-7.17c6.05-7.8 8.56-17.97 7.92-28.1-.66-10.51-4.71-20.87-11.69-28.38-5.09-5.47-10.19-8.5-15.02-9.59-4.85-1.1-9.6-.25-13.83 1.98-4.51 2.38-8.51 6.32-11.59 11.21-4.4 6.94-6.89 15.71-6.44 24.64zm-20.65 210c6.84 0 13.06 1.22 18.64 3.68l-3.24 14.85-1.23.67c-2.08-1.42-4.44-2.51-7.09-3.3-2.64-.78-5.22-1.17-7.75-1.17-5.36 0-9.32 1.68-11.89 5.02-2.57 3.36-3.85 8.64-3.85 15.85 0 15.63 5.54 23.44 16.63 23.44 2.46 0 5.06-.33 7.81-1 2.76-.67 5.25-1.6 7.48-2.79l1.57.89-1.46 14.85c-5.2 2.08-10.83 3.13-16.85 3.13-11.24 0-19.76-3.13-25.56-9.38-5.81-6.25-8.71-15.3-8.71-27.13 0-11.98 3.09-21.24 9.27-27.79 6.17-6.55 14.91-9.82 26.23-9.82zM231.97 287c5.11 0 9.3 1.19 12.59 3.57 3.29 2.37 4.93 5.66 4.93 9.86 0 2.87-.89 5.93-2.68 9.18-1.78 3.25-4.73 7.05-8.86 11.38l-6.5 7.03.31.42h11.65l9.75-.94.84 1.04-1.89 13.33-13.74-.74h-23.92l-3.78.32-.83-.63v-10.18l13.84-12.9c3.22-3.15 5.58-5.72 7.08-7.71 1.51-1.99 2.26-3.72 2.26-5.19 0-1.12-.44-2.02-1.31-2.68-.88-.67-2.12-1-3.73-1-2.09 0-4.35.51-6.76 1.52-2.42 1.02-4.71 2.44-6.87 4.25h-1.79l-2.83-12.9c7.83-4.69 15.24-7.03 22.24-7.03zm-62.85-27.02c10.27 0 18.19 3.06 23.77 9.2 5.58 6.14 8.37 14.87 8.37 26.18 0 12.35-3.05 21.94-9.15 28.74-6.1 6.81-14.7 10.22-25.78 10.22-10.2 0-18.09-3.15-23.67-9.44-5.58-6.28-8.37-15.19-8.37-26.73 0-12.2 3.03-21.62 9.1-28.24 6.06-6.62 14.64-9.93 25.73-9.93zm-1.57 14.51c-3.49 0-6.28.69-8.37 2.06-2.08 1.38-3.61 3.61-4.58 6.7-.96 3.09-1.44 7.28-1.44 12.56 0 6.32.48 11.29 1.44 14.9.97 3.61 2.52 6.19 4.64 7.76 2.12 1.56 5 2.34 8.65 2.34 3.57 0 6.4-.69 8.48-2.06 2.08-1.38 3.59-3.63 4.52-6.76.93-3.12 1.4-7.4 1.4-12.84 0-6.25-.48-11.16-1.45-14.73-.97-3.57-2.5-6.12-4.58-7.64-2.09-1.53-4.98-2.29-8.71-2.29zM33.2 172.89l-1.65-5.43c-1.58-5.22-5.26-7.55-9-7.85-2.35-.19-4.74.31-6.72 1.33-1.73.9-3.09 2.16-3.69 3.59-.78 1.9-.15 4.59 2.89 7.81 1.05 1.12 2.59 1.98 4.61 2.37 2.18.41 4.9.31 8.19-.5l5.37-1.32z"/></svg>