<?xml version="1.0" encoding="utf-8"?><svg version="1.1" id="Layer_1" xmlns="http://www.w3.org/2000/svg" xmlns:xlink="http://www.w3.org/1999/xlink" x="0px" y="0px" viewBox="0 0 99.32 122.88" style="enable-background:new 0 0 99.32 122.88" xml:space="preserve"><style type="text/css">.st0{fill-rule:evenodd;clip-rule:evenodd;fill:#393939;} .st1{fill-rule:evenodd;clip-rule:evenodd;fill:#42A5F5;} .st2{fill:#FFFFFF;}</style><g><path class="st0" d="M0,81.48h0.07l0-0.02c1.05-7.73,9.44-13.85,24.53-18.5c2.26-25.05,6.57-43.77,13.16-54.03L0,0V81.48L0,81.48z M98.51,81.48h0.13c0.29-26.76,1.31-53.52,0.14-80.28c-8.44,0.27-22.51,4.95-29.89,7.78l-0.35,0.05 C67.22,26.87,66.69,44.09,68,61.63C83.85,65.14,96.52,70.38,98.51,81.48L98.51,81.48z"/><path class="st1" d="M24.6,62.97c2.38-26.32,7.01-45.64,14.18-55.52l29.86,0.06C67.25,25.9,66.66,43.59,68,61.63 c16.09,3.55,28.9,8.9,30.59,20.34c-1.4,15.5-29.09,40.95-52.09,40.9c-12.43-0.03-15.86-10.72-23.77-19.77 C19,98.84,9.01,94.94,6.3,92.71c-4.52-3.73-6.43-7.37-6.24-11.25C1.12,73.73,9.51,67.61,24.6,62.97L24.6,62.97z M48.14,15.23 c-2.16,5.65-3.61,10.68-4.87,17.65c-0.86,4.73-1.48,9.82-1.84,15.31c-0.38,5.82-0.32,4.49-3.6,10.16 c0.13-8.91,0.91-18.87,2.21-26.04c1.3-7.21,3.13-13.63,5.34-19.43L48.14,15.23L48.14,15.23z M67.25,68.97 c3.24,1.42,5.19,3.24,5.19,5.22c0,4.57-10.35,8.27-23.12,8.27c-12.77,0-23.12-3.7-23.12-8.27c0-1.91,1.81-3.67,4.84-5.07 c-0.85,0.75-1.32,1.57-1.32,2.43c0,3.71,8.74,6.71,19.51,6.71s19.51-3.01,19.51-6.71C68.75,70.64,68.22,69.76,67.25,68.97 L67.25,68.97z M79.26,71.97c5.42,2.52,8.67,5.74,8.67,9.25c0,8.09-17.29,14.65-38.61,14.65c-21.33,0-38.61-6.56-38.61-14.65 c0-3.38,3.02-6.49,8.09-8.97c-1.42,1.33-2.2,2.79-2.2,4.3c0,6.56,14.59,11.89,32.59,11.89c18,0,32.59-5.32,32.59-11.89 C81.78,74.93,80.88,73.38,79.26,71.97L79.26,71.97z M60.8,14.67c-0.99,2.59-1.76,5.21-2.45,7.97c-0.68,2.76-1.68,7.22-2.31,10.44 l-2.82-2.13c0.63-3.21,1.23-6.2,1.95-9.1c0.72-2.9,1.08-3.97,2.11-6.67L60.8,14.67L60.8,14.67z M55.31,38.14 c-0.51,3.88-1.02,7.76-1.52,11.65c-0.31,4.06-1.63,6.82-3.39,9c-0.21-3.12-0.15-6.29,0.13-9.29c0.3-3.31,1.39-11.31,2.07-13.91 L55.31,38.14L55.31,38.14z"/><path class="st2" d="M48.14,15.23c-2.16,5.65-3.61,10.68-4.87,17.65c-0.86,4.73-1.48,9.82-1.84,15.31 c-0.38,5.82-0.32,4.49-3.6,10.16c0.13-8.91,0.91-18.87,2.21-26.04c1.3-7.21,3.13-13.63,5.34-19.43L48.14,15.23L48.14,15.23z M67.25,68.97c3.24,1.42,5.19,3.24,5.19,5.22c0,4.57-10.35,8.27-23.12,8.27c-12.77,0-23.12-3.7-23.12-8.27 c0-1.91,1.81-3.67,4.84-5.07c-0.85,0.75-1.32,1.57-1.32,2.43c0,3.71,8.74,6.71,19.51,6.71s19.51-3.01,19.51-6.71 C68.75,70.64,68.22,69.76,67.25,68.97L67.25,68.97z M79.26,71.97c5.42,2.52,8.67,5.74,8.67,9.25c0,8.09-17.29,14.65-38.61,14.65 c-21.33,0-38.61-6.56-38.61-14.65c0-3.38,3.02-6.49,8.09-8.97c-1.42,1.33-2.2,2.79-2.2,4.3c0,6.56,14.59,11.89,32.59,11.89 c18,0,32.59-5.32,32.59-11.89C81.78,74.93,80.88,73.38,79.26,71.97L79.26,71.97z M60.8,14.67c-0.99,2.59-1.76,5.21-2.45,7.97 c-0.68,2.76-1.68,7.22-2.31,10.44l-2.82-2.13c0.63-3.21,1.23-6.2,1.95-9.1c0.72-2.9,1.08-3.97,2.11-6.67L60.8,14.67L60.8,14.67z M55.31,38.14c-0.51,3.88-1.02,7.76-1.52,11.65c-0.31,4.06-1.63,6.82-3.39,9c-0.21-3.12-0.15-6.29,0.13-9.29 c0.3-3.31,1.39-11.31,2.07-13.91L55.31,38.14L55.31,38.14z"/></g></svg>