<svg id="Layer_1" data-name="Layer 1" xmlns="http://www.w3.org/2000/svg" viewBox="0 0 122.88 103.83"><defs><style>.cls-1{fill-rule:evenodd;}</style></defs><title>power-plant</title><path class="cls-1" d="M12,29.51,10.71,41.62h13.6L23.05,29.51ZM3,59.71l5.77.67.88-8.22H25.4l1.09,10.29L63.7,66.79l4.41-11.31V43.72h-9.9v2.85a1.44,1.44,0,1,1-2.88,0V43.72H53.8v2.85a1.44,1.44,0,1,1-2.88,0V43.72H49.83a1.17,1.17,0,0,1-.48-2.24L68.11,33V27.64h-9.9v2.68a1.44,1.44,0,1,1-2.88,0V27.64H53.8v2.68a1.44,1.44,0,0,1-2.88,0V27.64H49.83a1.17,1.17,0,0,1-.49-2.23l19-8.77h0l10.25-13a1.16,1.16,0,0,1,1.64-.2,1.23,1.23,0,0,1,.25.26l9.94,13,.07.1,18.84,8.61a1.18,1.18,0,0,1,.78,1.11A1.17,1.17,0,0,1,109,27.64h-2v2.68a1.44,1.44,0,0,1-2.88,0V27.64h-1.41v2.68a1.44,1.44,0,1,1-2.88,0V27.64H90.67v5.43l18.66,8.37a1.17,1.17,0,0,1-.38,2.28h-2v2.85a1.44,1.44,0,0,1-2.88,0V43.72h-1.41v2.85a1.44,1.44,0,0,1-2.88,0V43.72H90.67V55.49l6.91,15.26,14,1.63V97.59H3V59.71ZM24.05,26.32a1.34,1.34,0,0,1-2.46,1.07,4.91,4.91,0,0,1-.41-2.5,5.62,5.62,0,0,1,.71-2.16,1.34,1.34,0,0,1,1.82-.54,1.19,1.19,0,0,1,.33.26,6.9,6.9,0,0,0,3,1.66A2.67,2.67,0,0,0,28.64,24a1.87,1.87,0,0,0,.94-1,5.41,5.41,0,0,0,.31-2.77,1.35,1.35,0,0,1,1.21-1.45,1.33,1.33,0,0,1,1.35.79,5.52,5.52,0,0,0,4.3,2.77,6.29,6.29,0,0,0,2.53-.14,4.14,4.14,0,0,0,1.9-1.09A4.43,4.43,0,0,0,42,17a1.35,1.35,0,0,1,1.05-1.58,1.19,1.19,0,0,1,.42,0,5.05,5.05,0,0,0,5-2.56A4.47,4.47,0,0,0,49,10.78a3.69,3.69,0,0,0-.49-1.88c-.67-1.11-2.11-1.85-4.41-1.6a1.33,1.33,0,0,1-1.42-.94A5.18,5.18,0,0,0,40.12,3a3.3,3.3,0,0,0-1.87-.3,4,4,0,0,0-1.81.76A4.78,4.78,0,0,0,34.61,7a1.34,1.34,0,0,1-1.43,1.24,1.36,1.36,0,0,1-1.21-1,5.92,5.92,0,0,0-1.85-3,3.51,3.51,0,0,0-2.26-.76,5.11,5.11,0,0,0-2.49.77,5.67,5.67,0,0,0-2.3,2.66,1.35,1.35,0,0,1-1.74.75,1.28,1.28,0,0,1-.43-.28A5.67,5.67,0,0,0,17.23,5.6a3.16,3.16,0,0,0-1.76.47,3,3,0,0,0-1.16,1.39,6.22,6.22,0,0,0,.12,4.39,1.33,1.33,0,0,1-.84,1.69l-.1,0a3.84,3.84,0,0,0-2.94,2.81,3.77,3.77,0,0,0,0,1.67,3.58,3.58,0,0,0,.67,1.5c.79,1,2.26,1.66,4.42,1.33A1.34,1.34,0,0,1,16.92,23a10.59,10.59,0,0,0-1,2,6.78,6.78,0,0,0-.37,2A1.34,1.34,0,1,1,12.93,27a9.21,9.21,0,0,1,.5-2.79l.19-.54a6.44,6.44,0,0,1-4.56-2.43,6.24,6.24,0,0,1-1.18-2.61A6.44,6.44,0,0,1,8,15.75a6.37,6.37,0,0,1,3.59-4.32,8.15,8.15,0,0,1,.31-5A5.63,5.63,0,0,1,17.3,2.93a7.65,7.65,0,0,1,4.13,1.43A8.7,8.7,0,0,1,24,2,7.71,7.71,0,0,1,27.8.81h0a6.19,6.19,0,0,1,4,1.32A8,8,0,0,1,33,3.37a7.24,7.24,0,0,1,1.83-2A6.55,6.55,0,0,1,37.92.05a6.12,6.12,0,0,1,3.35.52,7.37,7.37,0,0,1,3.58,4,6.44,6.44,0,0,1,5.94,3,6.29,6.29,0,0,1,.86,3.26,7.13,7.13,0,0,1-.83,3.32,7.47,7.47,0,0,1-6,4A6.51,6.51,0,0,1,43.12,23,6.8,6.8,0,0,1,40,24.84a9.23,9.23,0,0,1-7.71-1.41,5.7,5.7,0,0,1-.29.76,4.43,4.43,0,0,1-2.29,2.28,5.16,5.16,0,0,1-3.16.26,8.27,8.27,0,0,1-2.7-1.11,2.39,2.39,0,0,0,.2.7ZM10.47,43.92l-.61,5.94h15.3l-.61-5.94ZM65.46,67l2.88.33,8.82-5.41L69.8,57.41,65.46,67Zm6.64.77,18,2.1L79.4,63.3l-7.3,4.47ZM70.46,52.26l7.63-8.75L70.63,35h-.17V52.26ZM79.39,42,85.57,35H73.23L79.39,42ZM88.17,35l-7.48,8.57,7.62,8.74V35ZM79.39,45l-8.32,9.53H87.71L79.39,45ZM70.46,31.29l7.15-6-7.15-6v12Zm8.93-7.47,5.92-4.95H73.48l5.91,4.95Zm8.92-4.48-7.14,6,7.14,6v-12ZM79.4,26.8l-6.93,5.8H86.31L79.4,26.8Zm0,33.75,5.95-3.65H73.44l6,3.65ZM89,57.42l-7.33,4.5,13,8L89,57.42Zm1.7-32.12h12.9l-12.9-5.9v5.9Zm-22.56-6-12.93,6H68.11v-6Zm22.56,16.3v5.73h12.8l-12.8-5.73ZM68.11,41.37V35.53L55.24,41.37Zm19.14-25L79.51,6.22l-8,10.12ZM0,99.66H122.88v4.17H0V99.66Zm16.73-21.9h9A1.27,1.27,0,0,1,27,79V90.39a1.26,1.26,0,0,1-1.26,1.26h-9a1.26,1.26,0,0,1-1.26-1.26V79a1.27,1.27,0,0,1,1.26-1.26Zm26.12,0h9A1.27,1.27,0,0,1,53.14,79V90.39a1.26,1.26,0,0,1-1.26,1.26h-9a1.26,1.26,0,0,1-1.27-1.26V79a1.27,1.27,0,0,1,1.27-1.26Z"/></svg>