<?xml version="1.0" encoding="utf-8"?><svg version="1.1" id="Layer_1" xmlns="http://www.w3.org/2000/svg" xmlns:xlink="http://www.w3.org/1999/xlink" x="0px" y="0px" viewBox="0 0 122.88 105.6" style="enable-background:new 0 0 122.88 105.6" xml:space="preserve"><g><path d="M14.44,14.36c1.48-0.53,3.11,0.24,3.64,1.72s-0.24,3.11-1.72,3.64c-1.13,0.41-2.1,0.91-2.91,1.52l-0.14,0.1 c-0.65,0.51-1.18,1.11-1.59,1.8c-1.56,2.66-0.84,4.88-0.13,7.09c0.91,2.83,1.82,5.65,0.39,9.46c-0.58,1.56-1.52,3.07-2.83,4.53 c-1.24,1.37-2.81,2.69-4.75,3.96c-1.32,0.86-3.08,0.48-3.94-0.84c-0.86-1.32-0.48-3.08,0.84-3.94c1.53-1,2.73-2,3.63-3 c0.82-0.91,1.38-1.81,1.72-2.7c0.73-1.96,0.12-3.84-0.48-5.73c-1.1-3.42-2.21-6.87,0.62-11.71c0.77-1.31,1.79-2.46,3.05-3.44 l0.17-0.14C11.26,15.75,12.74,14.98,14.44,14.36L14.44,14.36z M102.71,8.36c0.67-1.42,2.36-2.04,3.78-1.37 c1.42,0.67,2.04,2.36,1.37,3.78c-0.51,1.1-0.85,2.15-0.99,3.14c-0.13,0.91-0.09,1.77,0.12,2.58c0.78,2.97,2.85,4.03,4.92,5.09 c2.66,1.36,5.31,2.72,6.99,6.41l0.1,0.25c0.63,1.46,1,3.1,1.09,4.95l0,0.06c0.09,1.82-0.09,3.84-0.57,6.09 c-0.32,1.54-1.83,2.53-3.37,2.21c-1.54-0.32-2.53-1.83-2.21-3.37c0.37-1.77,0.52-3.32,0.45-4.66l0-0.04 c-0.06-1.15-0.27-2.13-0.61-2.95l-0.09-0.18c-0.87-1.91-2.62-2.81-4.38-3.71c-3.2-1.64-6.42-3.29-7.84-8.73 c-0.41-1.56-0.49-3.16-0.25-4.79C101.45,11.57,101.95,9.98,102.71,8.36L102.71,8.36z M87.55,34.03c-0.49-5.45-5.39-9.22-9.82-12.62 c-2.07-1.58-4.03-3.1-5.67-4.8c-4.21-4.4-5.83-9.14-0.34-15.8c-4.31-0.97-8.57-1.05-12.52-0.34c-4.3,0.79-8.24,2.51-11.51,5.08 c-3.24,2.55-5.83,5.94-7.43,10.05c-1.86,4.76-2.41,10.47-1.15,17.04c0.3,1.62-0.79,3.2-2.47,3.48h-0.1l0,0 c-2.45,0.37-4.68,1.07-6.62,2.05c-3.71,1.88-6.5,4.8-8.18,8.33c-1.7,3.59-2.29,7.84-1.6,12.36c0.45,2.9,1.44,5.9,3.02,8.87 c0.77,1.48,0.18,3.28-1.32,4.05c-0.22,0.12-0.45,0.2-0.69,0.24c-4.56,1.26-8.12,3.42-10.53,6.2c-1.66,1.9-2.77,4.11-3.28,6.46 c-0.51,2.41-0.43,5,0.34,7.68c1.24,4.36,4.21,8.91,9.16,13.25h95.28c4.25-2.25,7.13-5.35,8.83-8.85c1.87-3.83,2.33-8.14,1.66-12.34 c-0.69-4.25-2.57-8.34-5.39-11.67c-3-3.52-7.05-6.16-11.89-7.11c-0.06,0-0.1-0.02-0.16-0.04c-3.99,1.15-8.49,3.1-13.23,5.17 c-13.96,6.06-29.9,12.96-44.95,5.47c-1.52-0.75-2.11-2.57-1.34-4.05c0.77-1.48,2.61-2.07,4.13-1.32 c12.46,6.22,26.96-0.08,39.68-5.61c4.9-2.13,9.56-4.15,13.94-5.41c1.13-6.1,0.44-10.7-1.64-14.12c-2.03-3.3-5.51-5.65-10.05-7.29 c-4.96,4.27-10.37,7.29-15.72,8.77c-5.61,1.54-11.18,1.36-16.19-0.81c-1.54-0.67-2.25-2.45-1.56-3.97 c0.69-1.52,2.51-2.19,4.05-1.52c3.63,1.58,7.78,1.68,12.05,0.51C78.78,40.23,83.29,37.68,87.55,34.03L87.55,34.03L87.55,34.03z M92.07,92.82c-0.61-0.73-0.52-1.81,0.21-2.42c0.73-0.61,1.84-0.52,2.47,0.21l1.46,1.67c0.61,0.73,0.52,1.81-0.21,2.42 c-0.73,0.61-1.84,0.52-2.47-0.21L92.07,92.82L92.07,92.82L92.07,92.82z M49.87,50.15c1.74,0,3.15,1.39,3.15,3.08 c0,1.72-1.41,3.08-3.15,3.08c-1.74,0-3.15-1.39-3.15-3.08C46.71,51.54,48.13,50.15,49.87,50.15L49.87,50.15L49.87,50.15z M37.92,62.57c-0.61-0.73-0.52-1.81,0.21-2.42c0.73-0.61,1.84-0.52,2.47,0.21l1.12,1.31c0.61,0.73,0.52,1.81-0.21,2.42 c-0.73,0.61-1.84,0.52-2.47-0.21L37.92,62.57L37.92,62.57L37.92,62.57z M49.53,24.89c1.99,0,3.61,1.59,3.61,3.55 c0,1.96-1.62,3.55-3.61,3.55c-1.99,0-3.61-1.59-3.61-3.55C45.92,26.45,47.54,24.89,49.53,24.89L49.53,24.89L49.53,24.89z M60.38,86.59c1.74,0,3.15,1.39,3.15,3.08c0,1.72-1.41,3.08-3.15,3.08s-3.15-1.39-3.15-3.08C57.22,87.97,58.64,86.59,60.38,86.59 L60.38,86.59L60.38,86.59z M32.42,82.12c1.74,0,3.16,1.39,3.16,3.08c0,1.72-1.41,3.08-3.16,3.08c-1.74,0-3.15-1.39-3.15-3.08 C29.26,83.51,30.67,82.12,32.42,82.12L32.42,82.12L32.42,82.12z M105.81,84.29c1.74,0,3.15,1.39,3.15,3.08 c0,1.72-1.41,3.08-3.15,3.08c-1.74,0-3.16-1.39-3.16-3.08C102.65,85.68,104.06,84.29,105.81,84.29L105.81,84.29L105.81,84.29z M49.32,98.21c-0.61-0.73-0.52-1.81,0.21-2.42c0.73-0.61,1.84-0.52,2.47,0.21l1.12,1.3c0.61,0.73,0.52,1.81-0.21,2.42 c-0.73,0.61-1.84,0.52-2.47-0.21L49.32,98.21L49.32,98.21L49.32,98.21z M21.28,93.67c-0.64-0.73-0.52-1.81,0.21-2.42 c0.73-0.61,1.84-0.52,2.47,0.21l1.2,1.4c0.61,0.73,0.52,1.81-0.21,2.42c-0.73,0.61-1.84,0.52-2.47-0.21L21.28,93.67L21.28,93.67 L21.28,93.67z"/></g></svg>