<?xml version="1.0" encoding="utf-8"?><svg version="1.1" id="Layer_1" xmlns="http://www.w3.org/2000/svg" xmlns:xlink="http://www.w3.org/1999/xlink" x="0px" y="0px" viewBox="0 0 92.25 122.88" style="enable-background:new 0 0 92.25 122.88" xml:space="preserve"><g><path d="M34.4,49.67c0.64,0.22,1.22,0.49,1.74,0.81c0.29-2.27,1.33-4.3,2.87-5.84c0.74-0.74,1.59-1.36,2.52-1.84 c-0.43-0.35-0.82-0.74-1.19-1.17c-0.52-0.61-0.96-1.3-1.31-2.04c-1.36-2.89-0.96-5.57-0.54-8.32c0.09-0.57,0.17-1.14,0.19-1.31 l3.44-26.22c0.01-0.05,0.01-0.09,0.02-0.13l0,0c0.31-1.51,1.17-2.57,2.21-3.13c0.63-0.34,1.32-0.5,2-0.47 c0.69,0.03,1.38,0.24,1.98,0.65c0.99,0.67,1.76,1.82,1.97,3.47c0.01,0.05,0.01,0.1,0.01,0.15l3.63,28.86v0l0.01,0 c0.2,1.59,0.31,3.19,0.02,4.77c-0.32,1.72-1.11,3.32-2.74,4.69c-0.12,0.1-0.24,0.2-0.36,0.29c0.87,0.47,1.67,1.06,2.37,1.76 c1.67,1.68,2.76,3.94,2.93,6.45c0.74-0.38,1.56-0.66,2.42-0.81c0.8-0.14,1.61-0.18,2.43-0.12c3.17,0.26,5.3,1.95,7.47,3.68 c0.36,0.29,0.72,0.58,1.04,0.82l21.01,16.07c0.04,0.03,0.07,0.06,0.1,0.09l0,0c1.15,1.03,1.64,2.29,1.61,3.48 c-0.02,0.71-0.22,1.39-0.59,1.97c-0.37,0.58-0.9,1.07-1.56,1.39c-1.06,0.52-2.45,0.61-3.97-0.03l0,0.01L59.17,66.32 c-1.48-0.62-2.92-1.32-4.15-2.37c-1.25-1.07-2.2-2.44-2.62-4.32c-0.22,0.18-0.46,0.35-0.7,0.51l7.12,48.52h13.89 c0.75,0,1.43,0.31,1.93,0.8l0.01,0.01h0c0.49,0.5,0.8,1.18,0.8,1.93v8.75c0,0.75-0.31,1.43-0.8,1.93l0,0l0,0l0,0 c-0.5,0.49-1.18,0.8-1.92,0.8H19.54c-0.75,0-1.43-0.31-1.93-0.8l0,0l0,0l0,0c-0.49-0.5-0.8-1.18-0.8-1.92v-8.75 c0-0.75,0.31-1.43,0.8-1.93l0.01-0.01h0c0.5-0.49,1.18-0.8,1.93-0.8H33.4l6.15-48.36c0.01-0.27,0.08-0.53,0.2-0.75 c-0.15-0.12-0.29-0.25-0.43-0.38c-0.03,0.11-0.07,0.22-0.1,0.33c-0.26,0.75-0.61,1.48-1.07,2.17c-1.77,2.66-4.28,3.7-6.84,4.77 c-0.45,0.19-0.91,0.38-1.22,0.52L5.85,77.57c-0.04,0.02-0.08,0.03-0.12,0.05l0,0c-1.46,0.51-2.8,0.33-3.83-0.27 c-0.62-0.36-1.11-0.87-1.44-1.47c-0.33-0.6-0.5-1.3-0.46-2.03c0.06-1.19,0.65-2.45,1.95-3.48c0.04-0.03,0.07-0.05,0.11-0.08 L24.9,52.26c1.26-1,2.58-1.93,4.08-2.49C30.62,49.15,32.4,48.99,34.4,49.67L34.4,49.67z M48.35,62.17h-5.39l-5.95,46.48h18.2 L48.35,62.17L48.35,62.17z M20.4,112.25v7.04h51.45v-7.04C54.7,112.25,37.53,112.25,20.4,112.25L20.4,112.25z M50.7,47.18 c-1.17-1.17-2.79-1.89-4.58-1.89c-1.79,0-3.4,0.72-4.58,1.89c-1.17,1.17-1.89,2.79-1.89,4.58c0,1.79,0.72,3.4,1.89,4.58 c1.17,1.17,2.79,1.89,4.58,1.89c1.79,0,3.4-0.72,4.58-1.89c1.17-1.17,1.89-2.79,1.89-4.58C52.6,49.97,51.87,48.35,50.7,47.18 L50.7,47.18z M47.82,40.57c0.38-0.18,0.75-0.41,1.11-0.72c0.9-0.75,1.33-1.65,1.51-2.61c0.21-1.1,0.11-2.38-0.06-3.68l0.01,0 L46.76,4.72c-0.01-0.05-0.02-0.11-0.03-0.16c-0.06-0.51-0.21-0.81-0.4-0.93c-0.04-0.03-0.09-0.05-0.13-0.05 c-0.05,0-0.1,0.01-0.15,0.04c-0.17,0.09-0.32,0.31-0.4,0.68l-3.43,26.13c-0.1,0.73-0.14,1.05-0.19,1.38 c-0.33,2.2-0.66,4.36,0.23,6.25c0.23,0.48,0.5,0.91,0.8,1.27c0.61,0.73,1.39,1.25,2.23,1.48C46.11,41.03,46.97,40.97,47.82,40.57 L47.82,40.57z M55.77,57.3c-0.03,0.42-0.02,0.86,0.07,1.31c0.21,1.16,0.76,1.98,1.51,2.62c0.85,0.73,2,1.28,3.21,1.78l26.96,11.31 l0,0.01l0,0c0.47,0.2,0.81,0.22,1.02,0.12c0.04-0.02,0.08-0.05,0.1-0.09c0.03-0.04,0.04-0.09,0.04-0.14c0-0.19-0.12-0.43-0.39-0.69 L67.35,57.52c-0.4-0.31-0.75-0.59-1.1-0.86c-1.74-1.39-3.44-2.74-5.54-2.91c-0.53-0.04-1.04-0.02-1.5,0.06 c-0.95,0.17-1.79,0.58-2.4,1.19C56.23,55.57,55.85,56.35,55.77,57.3L55.77,57.3z M34.44,53.64c-0.34-0.23-0.73-0.42-1.19-0.57 c-1.12-0.38-2.11-0.29-3.02,0.05c-1.06,0.4-2.09,1.14-3.11,1.94L4.29,73.1c-0.04,0.03-0.07,0.06-0.11,0.09 c-0.4,0.32-0.58,0.6-0.59,0.82c0,0.05,0.01,0.1,0.03,0.13c0.02,0.04,0.06,0.08,0.1,0.11c0.16,0.1,0.43,0.11,0.79-0.01l24.14-10.58 c0.52-0.23,0.9-0.39,1.28-0.54c2.06-0.85,4.07-1.69,5.23-3.43c0.29-0.43,0.51-0.89,0.67-1.35c0.31-0.91,0.36-1.85,0.12-2.68 C35.71,54.88,35.22,54.16,34.44,53.64L34.44,53.64z"/></g></svg>